<svg width="40" height="40" viewBox="0 0 40 40" fill="none" xmlns="http://www.w3.org/2000/svg">
<g clip-path="url(#clip0_3_1480)">
<mask id="mask0_3_1480" style="mask-type:luminance" maskUnits="userSpaceOnUse" x="0" y="0" width="40" height="40">
<path d="M39.9794 0H0V39.9742H39.9794V0Z" fill="white"/>
</mask>
<g mask="url(#mask0_3_1480)">
<path d="M5.91016 17.0571C15.0893 17.0571 24.2685 17.0571 33.7259 17.0571C33.7259 23.7106 33.7259 30.9944 33.7259 37.8495C23.8299 41.0117 16.7868 40.1738 5.91016 37.8495C5.91016 31.196 5.91016 23.9123 5.91016 17.0571Z" fill="#00A996"/>
<path d="M24.2317 1.29542C24.3804 1.41131 24.5277 1.52883 24.6732 1.64816C24.7385 1.69953 24.8039 1.7509 24.8713 1.80383C26.1446 2.87088 26.9218 4.44554 26.9966 6.01216C27.03 7.81141 26.5727 9.46141 25.1983 10.8137C25.0257 10.9733 24.8508 11.1309 24.6732 11.2858C24.5982 11.3528 24.5231 11.4197 24.4457 11.4886C23.9868 11.8798 23.5079 12.1462 22.9548 12.4146C23.0281 12.4224 23.1013 12.4302 23.1768 12.4382C26.7006 12.8204 30.2956 13.3741 33.0746 15.5403C33.1781 15.6187 33.2818 15.6969 33.3856 15.775C35.0182 17.0085 36.1328 18.3837 37.1798 20.0553C37.2168 20.1136 37.2539 20.1719 37.2921 20.232C37.8703 21.1468 38.3029 22.1065 38.7073 23.0942C38.7429 23.1808 38.7429 23.1808 38.7793 23.2691C39.1401 24.1601 39.3878 25.0746 39.6093 26.0013C39.6418 26.1361 39.6754 26.2707 39.7106 26.405C39.9628 27.3699 39.9757 28.3369 39.9782 29.3239C39.9786 29.3889 39.979 29.4537 39.9793 29.5206C39.9857 31.7976 39.4968 34.1314 37.7526 35.8576C37.6918 35.9188 37.631 35.9801 37.5684 36.0431C34.5539 38.9332 28.9373 39.7075 24.7687 39.8516C24.2913 39.8591 23.8141 39.857 23.3366 39.8516C23.5746 39.6299 23.8181 39.4279 24.0825 39.233C24.8846 38.5972 25.5287 37.6719 25.654 36.6964C25.6878 35.9094 25.4544 35.1946 24.9418 34.5552C24.3209 34.1537 23.6742 33.8474 22.9025 33.8521C22.7816 33.8525 22.7816 33.8525 22.6583 33.853C22.575 33.8537 22.4916 33.8544 22.4058 33.8552C22.321 33.8556 22.2362 33.8559 22.1489 33.8564C21.9401 33.8574 21.7314 33.8588 21.5227 33.8606C21.6644 33.5384 21.6644 33.5384 21.8783 33.4293C22.5001 33.2581 23.1259 33.1548 23.7662 33.0575C25.0505 32.8508 26.2923 32.5625 27.5373 32.2109C27.621 32.1875 27.7048 32.1639 27.791 32.1398C29.7304 31.5861 32.2382 30.8366 33.3725 29.1903C33.5923 28.6876 33.5517 28.0518 33.3718 27.5437C33.0059 26.9212 32.3983 26.5014 31.7994 26.072C31.5695 25.9071 31.3437 25.7377 31.1174 25.5687C31.0324 25.5058 30.9473 25.4429 30.8597 25.3781C30.5145 25.1197 30.1749 24.8555 29.8352 24.591C29.5569 24.3761 29.2751 24.1674 28.9854 23.9651C28.9249 23.9229 28.8645 23.8806 28.8022 23.8371C28.6861 23.7564 28.5693 23.6763 28.452 23.597C28.1185 23.3656 27.8965 23.1835 27.7283 22.8337C27.689 22.5028 27.695 22.1742 27.7003 21.8416C27.7007 21.7459 27.7011 21.6502 27.7015 21.5515C27.7031 21.2463 27.7067 20.9411 27.7104 20.6359C27.7118 20.4288 27.7131 20.2216 27.7143 20.0144C27.7172 19.507 27.7228 18.9998 27.7283 18.4924C26.7201 18.4924 25.7119 18.4924 24.6732 18.4924C24.6732 19.1514 24.6732 19.8104 24.6732 20.4894C24.0727 20.4894 23.9105 20.4099 23.4858 20.0824C23.4285 20.0399 23.3712 19.9974 23.3121 19.9536C22.8792 19.63 22.4578 19.2942 22.0358 18.9591C21.5973 18.611 21.1575 18.2655 20.6993 17.9389C20.6114 17.8755 20.5236 17.8122 20.433 17.7469C20.1988 17.603 20.1988 17.603 19.9549 17.6452C19.6964 17.7143 19.5519 17.7931 19.3433 17.9457C19.2757 17.9944 19.208 18.0432 19.1382 18.0935C19.0666 18.1463 18.9949 18.1992 18.9211 18.2536C18.7674 18.3648 18.6137 18.4759 18.4599 18.587C18.3819 18.6437 18.3039 18.7003 18.2235 18.7586C17.8654 19.0165 17.5012 19.2671 17.1371 19.5181C16.5193 19.9459 15.9153 20.3863 15.3171 20.8367C14.2314 21.6459 13.1341 22.4405 12.0245 23.2227C10.9665 23.9688 9.92481 24.7275 8.90597 25.5175C8.57195 25.776 8.23192 26.0262 7.88844 26.2742C7.12422 26.8424 6.44761 27.4129 6.29527 28.3309C6.40779 29.0858 6.84 29.6205 7.47257 30.1023C10.5314 32.109 14.9078 33.0763 18.6435 32.6657C18.9617 32.6338 19.2752 32.6236 19.5954 32.6179C19.7161 32.6147 19.8368 32.6114 19.9612 32.6081C20.2816 32.645 20.2816 32.645 20.5117 32.8035C20.6635 32.9923 20.6635 32.9923 20.7231 33.2637C20.6509 33.671 20.4742 33.9261 20.2253 34.2659C20.0982 34.457 20.0477 34.6007 19.9952 34.8157C20.0513 34.8025 20.1075 34.7894 20.1653 34.7758C23.0333 34.1145 23.0333 34.1145 23.9214 34.5227C24.5343 34.9831 24.8836 35.451 24.9936 36.1645C25.0453 37.0492 24.6881 37.7619 24.0527 38.419C23.5966 38.8571 23.1526 39.1786 22.5431 39.4229C22.441 39.4651 22.339 39.5073 22.2339 39.5508C20.887 39.995 19.4858 39.9809 18.0739 39.971C17.9223 39.9704 17.9223 39.9704 17.7675 39.9698C16.1059 39.9627 14.4819 39.8889 12.8349 39.6779C12.7083 39.6624 12.5816 39.6469 12.455 39.6314C10.8038 39.4278 9.18033 39.1675 7.58413 38.7229C7.49949 38.6994 7.41486 38.6758 7.32767 38.6516C6.25088 38.3458 5.28631 37.9795 4.33813 37.4205C4.2575 37.3731 4.2575 37.3731 4.17525 37.3248C2.35549 36.2455 1.21015 34.9624 0.495463 33.0901C0.471934 33.0297 0.448405 32.9695 0.424163 32.9074C0.0246852 31.8075 -0.000278355 30.6553 0.000212686 29.5084C0.0001425 29.4366 7.23126e-05 29.3647 0 29.2906C0.00343998 27.939 0.168175 26.6685 0.51933 25.3517C0.556135 25.2109 0.556135 25.2109 0.593683 25.0674C0.940505 23.7728 1.42278 22.562 2.04685 21.3577C2.09503 21.2632 2.09503 21.2632 2.14418 21.1669C2.60938 20.2609 3.15878 19.4126 3.76531 18.5792C3.82585 18.4955 3.88641 18.4118 3.94879 18.3255C6.20143 15.3663 9.64309 13.5597 13.4853 12.8813C13.7457 12.8399 14.006 12.7999 14.267 12.7619C14.3448 12.7505 14.4225 12.739 14.5027 12.7273C15.4077 12.5959 16.3114 12.4699 17.2266 12.4146C17.164 12.3881 17.1015 12.3615 17.0371 12.3342C16.2414 11.9713 15.6547 11.5043 15.0308 10.9385C14.9347 10.8543 14.9347 10.8543 14.8368 10.7683C13.4755 9.47962 13.0587 7.66892 13.0889 5.94368C13.1196 5.27522 13.3133 4.69166 13.5987 4.07928C13.6232 4.02592 13.6478 3.97256 13.673 3.91759C14.3659 2.45309 15.6294 1.20685 17.2266 0.519416C19.6465 -0.333129 22.1441 -0.177714 24.2317 1.29542Z" fill="#F8F8F8"/>
<path d="M20.2812 27.6958C21.1949 27.6958 22.1085 27.6958 23.0499 27.6958C23.0499 28.5267 23.0499 29.3576 23.0499 30.2137C22.1362 30.2137 21.2226 30.2137 20.2812 30.2137C20.2812 29.3828 20.2812 28.5519 20.2812 27.6958Z" fill="#F8F8F8"/>
<path d="M16.8438 27.7827C17.7574 27.7827 18.671 27.7827 19.6124 27.7827C19.6124 28.585 19.6124 29.3873 19.6124 30.2138C18.6987 30.2138 17.785 30.2138 16.8438 30.2138C16.8438 29.4115 16.8438 28.6093 16.8438 27.7827Z" fill="#F8F8F8"/>
<path d="M20.2812 24.7437C21.1949 24.7437 22.1085 24.7437 23.0499 24.7437C23.0499 25.5459 23.0499 26.3482 23.0499 27.1748C22.1362 27.1748 21.2226 27.1748 20.2812 27.1748C20.2812 26.3725 20.2812 25.5702 20.2812 24.7437Z" fill="#F8F8F8"/>
<path d="M16.8438 24.7437C17.7574 24.7437 18.671 24.7437 19.6124 24.7437C19.6124 25.5459 19.6124 26.3482 19.6124 27.1748C18.6987 27.1748 17.785 27.1748 16.8438 27.1748C16.8438 26.3725 16.8438 25.5702 16.8438 24.7437Z" fill="#F8F8F8"/>
<path d="M16.8438 24.7437C17.7574 24.7437 18.671 24.7437 19.6124 24.7437C19.6124 25.5459 19.6124 26.3482 19.6124 27.1748C18.6987 27.1748 17.785 27.1748 16.8438 27.1748C16.8438 26.3725 16.8438 25.5702 16.8438 24.7437ZM17.0347 24.9173C17.0347 25.6049 17.0347 26.2926 17.0347 27.0011C17.8223 27.0011 18.6099 27.0011 19.4214 27.0011C19.4214 26.3134 19.4214 25.6258 19.4214 24.9173C18.6338 24.9173 17.8461 24.9173 17.0347 24.9173Z" fill="#F8F8F8"/>
<path d="M16.8438 27.7827C17.7574 27.7827 18.671 27.7827 19.6124 27.7827C19.6124 28.585 19.6124 29.3873 19.6124 30.2138C18.6987 30.2138 17.785 30.2138 16.8438 30.2138C16.8438 29.4115 16.8438 28.6093 16.8438 27.7827ZM17.0347 27.8695C17.0347 28.5859 17.0347 29.3021 17.0347 30.0402C17.8538 30.0402 18.6729 30.0402 19.5169 30.0402C19.5169 29.3238 19.5169 28.6075 19.5169 27.8695C18.6978 27.8695 17.8786 27.8695 17.0347 27.8695Z" fill="#F8F8F8"/>
<path d="M22.1022 33.4209C22.241 33.4236 22.241 33.4236 22.3826 33.4264C22.2881 33.4837 22.1936 33.541 22.0962 33.6C22.5688 33.6286 23.0414 33.6573 23.5283 33.6868C23.5283 33.7155 23.5283 33.7441 23.5283 33.7737C22.5359 33.8166 22.5359 33.8166 21.5234 33.8605C21.7616 33.4272 21.7616 33.4272 22.1022 33.4209Z" fill="#F8F8F8"/>
</g>
</g>
<defs>
<clipPath id="clip0_3_1480">
<rect width="40" height="40" fill="white"/>
</clipPath>
</defs>
</svg>
